REM DIRINDEX 1\2,1\3,1\4,1\5
REM DIRNAME cjc004,folder01,folder02,folder03,folder04
TITLE ""
FILE "1Q_t_1420-1429.mp3" MP3
  TRACK 01 AUDIO
    TITLE "3:cjc004_5166"
    INDEX 01 00:00:00
  TRACK 02 AUDIO
    TITLE "0:"
    INDEX 01 00:01:05
  TRACK 03 AUDIO
    TITLE "4:cjc004_5167"
    INDEX 01 00:01:28
  TRACK 04 AUDIO
    TITLE "0:"
    INDEX 01 00:02:53
  TRACK 05 AUDIO
    TITLE "5:cjc004_5168"
    INDEX 01 00:03:06
  TRACK 06 AUDIO
    TITLE "0:"
    INDEX 01 00:07:49
  TRACK 07 AUDIO
    TITLE "3:cjc004_5169"
    INDEX 01 00:08:24
  TRACK 08 AUDIO
    TITLE "0:"
    INDEX 01 00:09:55
  TRACK 09 AUDIO
    TITLE "4:cjc004_5170"
    INDEX 01 00:10:06
  TRACK 10 AUDIO
    TITLE "0:"
    INDEX 01 00:11:35
  TRACK 11 AUDIO
    TITLE "5:cjc004_5171"
    INDEX 01 00:11:62
  TRACK 12 AUDIO
    TITLE "0:"
    INDEX 01 00:16:44
  TRACK 13 AUDIO
    TITLE "3:cjc004_5172"
    INDEX 01 00:17:20
  TRACK 14 AUDIO
    TITLE "0:"
    INDEX 01 00:18:31
  TRACK 15 AUDIO
    TITLE "4:cjc004_5173"
    INDEX 01 00:18:62
  TRACK 16 AUDIO
    TITLE "0:"
    INDEX 01 00:20:04
  TRACK 17 AUDIO
    TITLE "5:cjc004_5174"
    INDEX 01 00:20:28
  TRACK 18 AUDIO
    TITLE "0:"
    INDEX 01 00:24:31
  TRACK 19 AUDIO
    TITLE "3:cjc004_5175"
    INDEX 01 00:25:13
  TRACK 20 AUDIO
    TITLE "0:"
    INDEX 01 00:26:28
  TRACK 21 AUDIO
    TITLE "4:cjc004_5176"
    INDEX 01 00:26:60
  TRACK 22 AUDIO
    TITLE "0:"
    INDEX 01 00:27:73
  TRACK 23 AUDIO
    TITLE "5:cjc004_5177"
    INDEX 01 00:28:21
  TRACK 24 AUDIO
    TITLE "0:"
    INDEX 01 00:33:34
  TRACK 25 AUDIO
    TITLE "3:cjc004_5178"
    INDEX 01 00:34:10
  TRACK 26 AUDIO
    TITLE "0:"
    INDEX 01 00:35:10
  TRACK 27 AUDIO
    TITLE "4:cjc004_5179"
    INDEX 01 00:35:39
  TRACK 28 AUDIO
    TITLE "0:"
    INDEX 01 00:36:46
  TRACK 29 AUDIO
    TITLE "5:cjc004_5180"
    INDEX 01 00:36:70
  TRACK 30 AUDIO
    TITLE "0:"
    INDEX 01 00:41:34
  TRACK 31 AUDIO
    TITLE "3:cjc004_5181"
    INDEX 01 00:42:10
  TRACK 32 AUDIO
    TITLE "0:"
    INDEX 01 00:43:25
  TRACK 33 AUDIO
    TITLE "4:cjc004_5182"
    INDEX 01 00:43:54
  TRACK 34 AUDIO
    TITLE "0:"
    INDEX 01 00:45:43
  TRACK 35 AUDIO
    TITLE "5:cjc004_5183"
    INDEX 01 00:45:67
  TRACK 36 AUDIO
    TITLE "0:"
    INDEX 01 00:49:55
  TRACK 37 AUDIO
    TITLE "3:cjc004_5184"
    INDEX 01 00:50:35
  TRACK 38 AUDIO
    TITLE "0:"
    INDEX 01 00:51:46
  TRACK 39 AUDIO
    TITLE "4:cjc004_5185"
    INDEX 01 00:52:00
  TRACK 40 AUDIO
    TITLE "0:"
    INDEX 01 00:53:11
  TRACK 41 AUDIO
    TITLE "5:cjc004_5186"
    INDEX 01 00:53:35
  TRACK 42 AUDIO
    TITLE "0:"
    INDEX 01 00:58:07
  TRACK 43 AUDIO
    TITLE "3:cjc004_5187"
    INDEX 01 00:58:58
  TRACK 44 AUDIO
    TITLE "0:"
    INDEX 01 00:59:65
  TRACK 45 AUDIO
    TITLE "4:cjc004_5188"
    INDEX 01 01:00:15
  TRACK 46 AUDIO
    TITLE "0:"
    INDEX 01 01:01:58
  TRACK 47 AUDIO
    TITLE "5:cjc004_5189"
    INDEX 01 01:02:10
  TRACK 48 AUDIO
    TITLE "0:"
    INDEX 01 01:05:73
  TRACK 49 AUDIO
    TITLE "3:cjc004_5190"
    INDEX 01 01:06:55
  TRACK 50 AUDIO
    TITLE "0:"
    INDEX 01 01:07:70
  TRACK 51 AUDIO
    TITLE "4:cjc004_5191"
    INDEX 01 01:08:25
  TRACK 52 AUDIO
    TITLE "0:"
    INDEX 01 01:09:28
  TRACK 53 AUDIO
    TITLE "5:cjc004_5192"
    INDEX 01 01:09:54
  TRACK 54 AUDIO
    TITLE "0:"
    INDEX 01 01:14:04
  TRACK 55 AUDIO
    TITLE "3:cjc004_5193"
    INDEX 01 01:14:68
  TRACK 56 AUDIO
    TITLE "0:"
    INDEX 01 01:15:70
  TRACK 57 AUDIO
    TITLE "4:cjc004_5194"
    INDEX 01 01:16:18
  TRACK 58 AUDIO
    TITLE "0:"
    INDEX 01 01:17:71
  TRACK 59 AUDIO
    TITLE "5:cjc004_5195"
    INDEX 01 01:18:23
  TRACK 60 AUDIO
    TITLE "0:"
    INDEX 01 01:22:25
